<svg width="48" height="48" viewBox="0 0 48 48" fill="none" xmlns="http://www.w3.org/2000/svg">
<path d="M24 14.04C18.5 14.04 14 18.53 14 24.06C14 29.06 17.66 33.21 22.44 33.96V26.96H19.9V24.06H22.44V21.85C22.44 19.34 23.93 17.96 26.22 17.96C27.31 17.96 28.45 18.15 28.45 18.15V20.62H27.19C25.95 20.62 25.56 21.39 25.56 22.18V24.06H28.34L27.89 26.96H25.56V33.96C27.9164 33.5879 30.0622 32.3856 31.6099 30.5701C33.1576 28.7546 34.0053 26.4457 34 24.06C34 18.53 29.5 14.04 24 14.04V14.04Z" fill="#072125"/>
<rect x="0.5" y="0.5" width="47" height="47" rx="23.5" stroke="#20484F" stroke-opacity="0.1"/>
</svg>
